<?xml version="1.0" encoding="UTF-8"?>
<svg xmlns="http://www.w3.org/2000/svg" xmlns:xlink="http://www.w3.org/1999/xlink" width="0" height="0">
<defs>

<symbol id="calendar" viewBox="0 0 24 24" fill="none" stroke="currentColor" stroke-width="2" stroke-linecap="round" stroke-linejoin="round">
  <path d="M8 2v4"/>
  <path d="M16 2v4"/>
  <rect width="18" height="18" x="3" y="4" rx="2"/>
  <path d="M3 10h18"/>
</symbol>

<symbol id="dices" viewBox="0 0 24 24" fill="none" stroke="currentColor" stroke-width="2" stroke-linecap="round" stroke-linejoin="round">
  <rect width="12" height="12" x="2" y="10" rx="2" ry="2"/>
  <path d="m17.92 14 3.5-3.5a2.24 2.24 0 0 0 0-3l-5-4.92a2.24 2.24 0 0 0-3 0L10 6"/>
  <path d="M6 18h.01"/>
  <path d="M10 14h.01"/>
  <path d="M15 6h.01"/>
  <path d="M18 9h.01"/>
</symbol>

<symbol id="folder" viewBox="0 0 24 24" fill="none" stroke="currentColor" stroke-width="2" stroke-linecap="round" stroke-linejoin="round">
  <path d="M20 20a2 2 0 0 0 2-2V8a2 2 0 0 0-2-2h-7.9a2 2 0 0 1-1.69-.9L9.6 3.9A2 2 0 0 0 7.93 3H4a2 2 0 0 0-2 2v13a2 2 0 0 0 2 2Z"/>
</symbol>

<symbol id="folder-sync" viewBox="0 0 24 24" fill="none" stroke="currentColor" stroke-width="2" stroke-linecap="round" stroke-linejoin="round">
  <path d="M9 20H4a2 2 0 0 1-2-2V5a2 2 0 0 1 2-2h3.9a2 2 0 0 1 1.69.9l.81 1.2a2 2 0 0 0 1.67.9H20a2 2 0 0 1 2 2v.5"/>
  <path d="M12 10v4h4"/>
  <path d="m12 14 1.535-1.605a5 5 0 0 1 8 1.5"/>
  <path d="M22 22v-4h-4"/>
  <path d="m22 18-1.535 1.605a5 5 0 0 1-8-1.5"/>
</symbol>

<symbol id="folders" viewBox="0 0 24 24" fill="none" stroke="currentColor" stroke-width="2" stroke-linecap="round" stroke-linejoin="round">
  <path d="M20 17a2 2 0 0 0 2-2V9a2 2 0 0 0-2-2h-3.9a2 2 0 0 1-1.69-.9l-.81-1.2a2 2 0 0 0-1.67-.9H8a2 2 0 0 0-2 2v9a2 2 0 0 0 2 2Z"/>
  <path d="M2 8v11a2 2 0 0 0 2 2h14"/>
</symbol>

<symbol id="house" viewBox="0 0 24 24" fill="none" stroke="currentColor" stroke-width="2" stroke-linecap="round" stroke-linejoin="round">
  <path d="M15 21v-8a1 1 0 0 0-1-1h-4a1 1 0 0 0-1 1v8"/>
  <path d="M3 10a2 2 0 0 1 .709-1.528l7-5.999a2 2 0 0 1 2.582 0l7 5.999A2 2 0 0 1 21 10v9a2 2 0 0 1-2 2H5a2 2 0 0 1-2-2z"/>
</symbol>

<symbol id="log-out" viewBox="0 0 24 24" fill="none" stroke="currentColor" stroke-width="2" stroke-linecap="round" stroke-linejoin="round">
  <path d="M9 21H5a2 2 0 0 1-2-2V5a2 2 0 0 1 2-2h4"/>
  <polyline points="16 17 21 12 16 7"/>
  <line x1="21" x2="9" y1="12" y2="12"/>
</symbol>

<symbol id="menu" viewBox="0 0 24 24" fill="none" stroke="currentColor" stroke-width="2" stroke-linecap="round" stroke-linejoin="round">
  <line x1="4" x2="20" y1="12" y2="12"/>
  <line x1="4" x2="20" y1="6" y2="6"/>
  <line x1="4" x2="20" y1="18" y2="18"/>
</symbol>

<symbol id="moon" viewBox="0 0 24 24" fill="none" stroke="currentColor" stroke-width="2" stroke-linecap="round" stroke-linejoin="round">
  <path d="M12 3a6 6 0 0 0 9 9 9 9 0 1 1-9-9Z"/>
</symbol>

<symbol id="pilcrow" viewBox="0 0 24 24" fill="none" stroke="currentColor" stroke-width="2" stroke-linecap="round" stroke-linejoin="round">
  <path d="M13 4v16"/>
  <path d="M17 4v16"/>
  <path d="M19 4H9.5a4.5 4.5 0 0 0 0 9H13"/>
</symbol>

<symbol id="scale" viewBox="0 0 24 24" fill="none" stroke="currentColor" stroke-width="2" stroke-linecap="round" stroke-linejoin="round">
  <path d="m16 16 3-8 3 8c-.87.65-1.92 1-3 1s-2.13-.35-3-1Z"/>
  <path d="m2 16 3-8 3 8c-.87.65-1.92 1-3 1s-2.13-.35-3-1Z"/>
  <path d="M7 21h10"/>
  <path d="M12 3v18"/>
  <path d="M3 7h2c2 0 5-1 7-2 2 1 5 2 7 2h2"/>
</symbol>

<symbol id="shield" viewBox="0 0 24 24" fill="none" stroke="currentColor" stroke-width="2" stroke-linecap="round" stroke-linejoin="round">
  <path d="M20 13c0 5-3.5 7.5-7.66 8.95a1 1 0 0 1-.67-.01C7.5 20.5 4 18 4 13V6a1 1 0 0 1 1-1c2 0 4.5-1.2 6.24-2.72a1.17 1.17 0 0 1 1.52 0C14.51 3.81 17 5 19 5a1 1 0 0 1 1 1z"/>
</symbol>

<symbol id="smile-plus" viewBox="0 0 24 24" fill="none" stroke="currentColor" stroke-width="2" stroke-linecap="round" stroke-linejoin="round">
  <path d="M22 11v1a10 10 0 1 1-9-10"/>
  <path d="M8 14s1.5 2 4 2 4-2 4-2"/>
  <line x1="9" x2="9.01" y1="9" y2="9"/>
  <line x1="15" x2="15.01" y1="9" y2="9"/>
  <path d="M16 5h6"/>
  <path d="M19 2v6"/>
</symbol>

<symbol id="trophy" viewBox="0 0 24 24" fill="none" stroke="currentColor" stroke-width="2" stroke-linecap="round" stroke-linejoin="round">
  <path d="M6 9H4.5a2.5 2.5 0 0 1 0-5H6"/>
  <path d="M18 9h1.5a2.5 2.5 0 0 0 0-5H18"/>
  <path d="M4 22h16"/>
  <path d="M10 14.66V17c0 .55-.47.98-.97 1.21C7.85 18.75 7 20.24 7 22"/>
  <path d="M14 14.66V17c0 .55.47.98.97 1.21C16.15 18.75 17 20.24 17 22"/>
  <path d="M18 2H6v7a6 6 0 0 0 12 0V2Z"/>
</symbol>

<symbol id="user" viewBox="0 0 24 24" fill="none" stroke="currentColor" stroke-width="2" stroke-linecap="round" stroke-linejoin="round">
  <path d="M19 21v-2a4 4 0 0 0-4-4H9a4 4 0 0 0-4 4v2"/>
  <circle cx="12" cy="7" r="4"/>
</symbol>

<symbol id="users" viewBox="0 0 24 24" fill="none" stroke="currentColor" stroke-width="2" stroke-linecap="round" stroke-linejoin="round">
  <path d="M16 21v-2a4 4 0 0 0-4-4H6a4 4 0 0 0-4 4v2"/>
  <circle cx="9" cy="7" r="4"/>
  <path d="M22 21v-2a4 4 0 0 0-3-3.87"/>
  <path d="M16 3.13a4 4 0 0 1 0 7.75"/>
</symbol>

<symbol id="x" viewBox="0 0 24 24" fill="none" stroke="currentColor" stroke-width="2" stroke-linecap="round" stroke-linejoin="round">
  <path d="M18 6 6 18"/>
  <path d="m6 6 12 12"/>
</symbol>

</defs>
</svg>
